<svg width="46" height="46" viewBox="0 0 46 46" fill="none" xmlns="http://www.w3.org/2000/svg">
<g clip-path="url(#clip0_5810_1144)">
<path fill-rule="evenodd" clip-rule="evenodd" d="M45.4544 7.09522C45.7214 10.3813 46 15.5861 46 23C46 30.4139 45.7214 35.6187 45.4544 38.9048C45.1675 42.4368 42.4368 45.1675 38.9047 45.4545C35.6187 45.7215 30.4139 46 23 46C15.5861 46 10.3813 45.7215 7.0952 45.4545C3.5632 45.1675 0.832501 42.4368 0.545501 38.9048C0.278602 35.6187 -3.241e-07 30.4139 0 23C3.24e-07 15.5861 0.278602 10.3813 0.545602 7.0952C0.832502 3.56317 3.5632 0.832499 7.0952 0.545529C10.3813 0.278539 15.5861 -2.32406e-06 23 0C30.4139 3.24086e-07 35.6187 0.278551 38.9048 0.545541C42.4368 0.832511 45.1675 3.56318 45.4544 7.09522ZM42 23C42 15.6859 41.7252 10.5896 41.4676 7.41914C41.3393 5.84058 40.1594 4.66066 38.5808 4.5324C35.4105 4.27481 30.3141 4 23 4C15.686 4 10.5896 4.2748 7.4192 4.53239C5.8406 4.66065 4.6607 5.84056 4.5324 7.41913C4.2748 10.5895 4 15.6859 4 23C4 30.3141 4.2748 35.4105 4.5324 38.5809C4.6607 40.1594 5.8406 41.3394 7.4191 41.4676C10.5896 41.7252 15.6859 42 23 42C30.3141 42 35.4104 41.7252 38.5808 41.4676C40.1594 41.3394 41.3393 40.1594 41.4676 38.5809C41.7252 35.4105 42 30.3141 42 23Z" fill="black"/>
<path fill-rule="evenodd" clip-rule="evenodd" d="M30.477 8.52409C31.8654 7.13569 34.3448 6.24486 36.3929 7.88485C37.1306 8.47563 37.5244 8.86938 38.1151 9.60713C39.7551 11.6552 38.8643 14.1346 37.4759 15.523L25.2177 27.7811C24.606 28.3928 23.7585 28.88 22.7423 28.9534C22.0507 29.0034 21.0128 29.0296 19.5785 28.9458C18.0657 28.8574 17.1426 27.9343 17.0542 26.4215C16.9704 24.9872 16.9966 23.9493 17.0466 23.2577C17.12 22.2415 17.6072 21.394 18.2189 20.7822L30.477 8.52409ZM30.7093 12.8152C31.7177 13.6357 32.3643 14.2823 33.1846 15.2908L35.2142 13.2613C35.5501 12.9253 35.7289 12.5603 35.779 12.2691C35.8238 12.0096 35.7746 11.8015 35.6184 11.6064C35.1745 11.052 34.948 10.8255 34.3936 10.3816C34.1985 10.2253 33.9904 10.1762 33.7309 10.2209C33.4397 10.2712 33.0747 10.4499 32.7387 10.7858L30.7093 12.8152Z" fill="black"/>
<path fill-rule="evenodd" clip-rule="evenodd" d="M19.0473 37.8625C19.0473 38.8919 19.8818 39.7263 20.9112 39.7263C21.9407 39.7263 22.7751 38.8919 22.7751 37.8625L22.7751 34.135C22.7751 33.1057 21.9407 32.2712 20.9112 32.2712C19.8818 32.2712 19.0473 33.1057 19.0473 34.135L19.0473 37.8625ZM6 24.8161C6 23.7868 6.83447 22.9524 7.86391 22.9524L11.5917 22.9524C12.6211 22.9524 13.4556 23.7868 13.4556 24.8162C13.4556 25.8455 12.6211 26.6799 11.5917 26.6799L7.86391 26.6799C6.83447 26.6799 6 25.8455 6 24.8161ZM10.3683 32.7243C9.64048 33.4521 9.64048 34.6322 10.3683 35.3601C11.0963 36.0879 12.2764 36.0879 13.0044 35.3601L15.6403 32.7243C16.3682 31.9964 16.3682 30.8164 15.6403 30.0886C14.9124 29.3607 13.7322 29.3607 13.0044 30.0886L10.3683 32.7243ZM10.3683 14.2722C11.0963 13.5443 12.2764 13.5443 13.0044 14.2722L15.6403 16.908C16.3682 17.6359 16.3682 18.8159 15.6403 19.5438C14.9124 20.2716 13.7322 20.2716 13.0044 19.5438L10.3683 16.908C9.64049 16.1802 9.64049 15 10.3683 14.2722ZM28.8181 35.3601C29.5461 36.0879 30.7262 36.0879 31.454 35.3601C32.182 34.6322 32.182 33.4521 31.454 32.7243L28.8181 30.0886C28.0903 29.3607 26.91 29.3607 26.1822 30.0885C25.4542 30.8164 25.4542 31.9964 26.1822 32.7243L28.8181 35.3601Z" fill="black"/>
</g>
<defs>
<clipPath id="clip0_5810_1144">
<rect width="46" height="46" fill="white"/>
</clipPath>
</defs>
</svg>
